<svg width="1600" height="900" viewBox="0 0 1600 900" xmlns="http://www.w3.org/2000/svg">
  <defs>
    <radialGradient id="g" cx="50%" cy="50%" r="70%">
      <stop offset="0%" stop-color="#50E3C2" stop-opacity="0.25"></stop>
      <stop offset="60%" stop-color="#0A0A0A" stop-opacity="0.85"></stop>
      <stop offset="100%" stop-color="#000000"></stop>
    </radialGradient>
    <filter id="glow" x="-50%" y="-50%" width="200%" height="200%">
      <feGaussianBlur stdDeviation="8" result="b"></feGaussianBlur>
      <feMerge><feMergeNode in="b"></feMergeNode><feMergeNode in="SourceGraphic"></feMergeNode></feMerge>
    </filter>
  </defs>
  <rect width="1600" height="900" fill="url(#g)"></rect>
  <!-- Brain outline -->
  <g transform="translate(800 450)" stroke="#50E3C2" stroke-opacity="0.9" fill="none" stroke-width="1.5" filter="url(#glow)">
    <path d="M-210,-40c0,-70,70,-120,140,-110c20,-60,120,-60,150,0c70,-10,140,40,140,110c45,10,70,50,60,95c30,40,10,100,-40,120c-20,60,-90,80,-140,40c-40,50,-120,50,-160,0c-50,40,-120,20,-140,-40c-50,-20,-70,-80,-40,-120c-10,-45,15,-85,70,-95z"></path>
    <!-- Neural nodes -->
    <circle cx="-100" cy="-20" r="4"></circle><circle cx="20" cy="-40" r="4"></circle><circle cx="90" cy="10" r="4"></circle>
    <circle cx="-40" cy="60" r="4"></circle><circle cx="60" cy="70" r="4"></circle><circle cx="-120" cy="30" r="4"></circle>
    <!-- Edges -->
    <path d="M-100,-20L20,-40M20,-40L90,10M-40,60L60,70M-120,30L-40,60M-120,30L-100,-20M60,70L90,10" opacity="0.9"></path>
  </g>
  <!-- Title -->
  <g font-family="Inter,Segoe UI,Arial" fill="#E6FFFA">
    <text x="120" y="760" font-size="56" font-weight="700">The Future of AI in Mental Health</text>
    <text x="120" y="820" font-size="28" fill="#BFF5EA">Reshaping assessment, triage, and support with safer guardrails — by Vitalos</text>
  </g>
</svg>
